<?xml version="1.0" standalone="no"?>
<!DOCTYPE svg PUBLIC "-//W3C//DTD SVG 20010904//EN"
 "http://www.w3.org/TR/2001/REC-SVG-20010904/DTD/svg10.dtd">
<svg version="1.0" xmlns="http://www.w3.org/2000/svg"
 width="1002.000000pt" height="412.000000pt" viewBox="0 0 1002.000000 412.000000"
 preserveAspectRatio="xMidYMid meet">

<g transform="translate(0.000000,412.000000) scale(0.100000,-0.100000)"
fill="#000000" stroke="none">
<path d="M4830 4105 c-297 -67 -461 -336 -510 -834 -5 -57 -10 -192 -10 -300
0 -108 -4 -202 -9 -210 -5 -8 -152 -39 -415 -87 -426 -77 -632 -120 -881 -185
-227 -58 -391 -71 -1130 -89 -225 -5 -450 -13 -500 -16 -105 -7 -221 5 -433
46 -216 42 -324 47 -499 21 -350 -52 -445 -104 -430 -234 12 -101 111 -209
252 -277 145 -68 267 -86 672 -98 299 -9 281 -4 333 -105 74 -144 219 -301
385 -413 193 -132 226 -139 579 -131 157 4 279 12 326 21 120 24 131 22 202
-33 212 -167 418 -298 652 -416 109 -54 187 -100 198 -115 17 -24 17 -34 -5
-270 l-22 -245 -55 -7 c-30 -3 -208 -7 -395 -7 -633 -2 -2566 -40 -2578 -51
-4 -4 142 -10 325 -14 183 -3 551 -11 818 -16 1953 -40 4681 -40 6625 0 264 5
630 13 813 16 183 4 329 10 325 14 -12 11 -1976 49 -2524 50 -163 0 -363 3
-446 7 l-151 6 -6 171 c-4 94 -12 210 -17 257 -16 137 -13 140 173 234 84 43
279 148 433 233 373 208 369 206 520 199 66 -4 199 -15 295 -26 314 -36 418
-42 484 -30 125 22 226 97 312 230 44 67 136 250 188 372 44 105 33 102 323
87 425 -22 608 4 772 110 123 80 191 175 191 267 0 88 -53 130 -180 144 -41 4
-136 27 -210 50 l-135 43 -165 0 c-139 0 -187 -4 -305 -27 -252 -48 -279 -49
-1081 -44 l-751 5 -119 50 c-325 137 -814 244 -1273 278 -70 5 -99 12 -112 25
-28 28 -34 129 -31 531 2 235 -1 400 -7 435 -16 84 -64 175 -118 223 -61 53
-187 115 -288 141 -107 27 -315 35 -405 14z m154 -197 c-20 -36 -57 -64 -140
-103 -150 -72 -190 -137 -219 -352 -23 -175 -54 -587 -45 -596 7 -8 16 12 71
162 22 63 23 64 32 35 12 -41 1 -175 -18 -221 -9 -20 -23 -46 -33 -57 -20 -22
-101 -60 -110 -51 -19 19 8 690 33 807 39 190 161 330 325 374 62 17 113 18
104 2z m273 -28 c80 -37 162 -114 196 -184 55 -112 56 -242 5 -546 -14 -82
-22 -172 -22 -262 -1 -126 -2 -135 -18 -122 -9 9 -27 39 -40 67 -20 45 -23 66
-22 167 1 63 11 196 24 295 24 196 23 300 -4 352 -25 49 -69 96 -170 180 -50
42 -95 80 -101 86 -21 20 91 -4 152 -33z m-139 -47 c65 -31 138 -111 157 -173
26 -86 32 -343 11 -450 -43 -209 -136 -333 -262 -348 -136 -15 -271 111 -315
293 -27 115 -4 367 43 478 27 62 94 121 198 175 91 47 115 50 168 25z m-249
-1050 c52 -35 109 -39 239 -13 124 24 132 22 132 -30 0 -33 -41 -120 -69 -144
-11 -11 -21 -23 -21 -28 0 -4 42 -8 94 -8 l94 0 -14 -62 c-56 -267 -186 -460
-424 -631 l-25 -17 35 5 c19 3 73 24 119 47 173 83 314 260 413 518 l29 75 -6
-275 c-4 -151 -9 -376 -13 -499 l-7 -223 -32 -27 c-104 -86 -371 -125 -599
-86 -390 67 -874 307 -1489 739 l-199 140 179 59 c207 67 408 109 795 167
l275 41 30 -35 c37 -42 167 -268 169 -293 1 -13 -22 -30 -79 -61 -75 -41 -78
-43 -40 -38 22 3 151 15 288 27 136 13 247 26 247 29 0 4 -48 12 -107 18 -177
20 -155 3 -256 201 -49 95 -86 175 -84 178 3 3 61 1 129 -4 68 -5 124 -9 126
-8 2 2 -53 23 -144 56 -21 7 -19 10 23 55 53 55 79 108 89 181 l6 51 32 -41
c18 -23 47 -52 65 -64z m840 -242 c13 -8 21 -22 21 -39 1 -79 39 -665 44 -670
3 -3 8 -3 10 -1 2 2 13 159 25 348 12 190 23 346 25 348 4 5 378 -45 506 -68
63 -11 169 -33 234 -50 161 -40 377 -121 363 -135 -3 -3 -49 -23 -103 -43
-117 -46 -134 -65 -48 -58 33 3 295 12 584 21 472 14 708 22 1240 45 91 4 166
6 168 5 1 0 -22 -20 -52 -44 -93 -71 -249 -242 -324 -353 -83 -124 -139 -236
-186 -367 l-34 -95 -44 3 c-23 1 -163 11 -311 22 -147 11 -279 20 -292 20 -14
0 -25 5 -25 10 0 6 86 149 190 319 105 169 190 313 190 320 0 26 -33 6 -131
-82 -282 -252 -671 -535 -974 -708 -188 -107 -506 -251 -522 -235 -4 4 18 27
48 53 144 122 308 309 454 518 83 119 250 393 244 400 -2 2 -45 -33 -94 -77
-121 -109 -254 -215 -347 -277 -84 -56 -285 -157 -294 -148 -3 3 35 52 85 109
120 136 265 348 249 364 -3 2 -40 -28 -84 -67 -43 -39 -105 -89 -138 -111 -65
-45 -176 -98 -204 -98 -15 0 -25 36 -71 255 -30 140 -55 254 -56 253 -1 -2 19
-446 46 -988 26 -542 48 -1013 49 -1047 l0 -63 -331 0 -330 0 6 343 c3 188 10
732 16 1210 5 477 12 873 15 881 4 11 18 11 83 1 43 -7 88 -18 100 -24z
m-4789 -262 c35 -16 97 -36 137 -44 85 -16 102 -27 203 -130 55 -56 72 -78 62
-84 -24 -15 -313 -21 -527 -12 -298 14 -438 42 -498 99 -31 29 -60 81 -71 125
l-6 27 69 0 c89 0 195 -20 388 -75 86 -25 159 -43 161 -40 7 7 -39 42 -83 64
-23 10 -63 22 -90 26 -60 9 -101 28 -115 55 -10 20 -7 20 147 20 155 0 159 -1
223 -31z m8605 12 c0 -9 -52 -34 -147 -69 -93 -34 -148 -60 -148 -68 0 -8 2
-14 5 -14 4 0 99 22 213 49 303 72 392 86 407 60 11 -17 -44 -117 -83 -149
-77 -63 -162 -74 -699 -86 -235 -5 -323 -4 -323 4 0 15 133 165 165 186 14 9
60 24 102 32 43 9 89 23 103 32 52 33 103 41 255 39 122 -2 150 -5 150 -16z
m-6543 -129 c56 -38 205 -132 330 -211 125 -78 266 -170 315 -205 l88 -62 -2
-100 c-2 -54 -12 -206 -23 -336 -11 -130 -20 -262 -20 -293 0 -54 -1 -56 -22
-50 -44 13 -464 232 -613 320 -290 169 -590 377 -862 597 -68 54 -123 93 -123
87 0 -6 25 -50 56 -96 66 -98 202 -244 303 -323 38 -30 70 -58 70 -61 2 -23
-428 -17 -465 6 -12 8 -54 62 -94 121 -113 166 -220 294 -398 475 l-163 167
418 4 418 5 48 -24 c52 -25 104 -63 297 -218 221 -178 433 -320 636 -427 61
-32 114 -58 118 -58 5 0 -182 162 -414 361 -232 199 -418 365 -414 369 13 12
68 16 251 18 l161 2 104 -68z m1090 -671 l203 -109 -2 -199 c-1 -109 -13 -342
-27 -518 -14 -176 -28 -368 -32 -427 l-7 -108 -83 0 -84 0 0 34 c0 19 14 245
30 502 27 413 29 490 17 473 -2 -2 -27 -211 -56 -464 -29 -253 -55 -479 -58
-502 l-6 -43 -94 0 -94 0 6 83 c6 81 75 1346 75 1373 0 8 2 14 4 14 2 0 96
-49 208 -109z m466 -221 c199 -114 357 -225 692 -489 63 -49 116 -88 118 -86
2 2 -22 39 -54 82 -83 111 -300 325 -429 423 -73 55 -101 80 -82 76 129 -31
361 -25 554 14 57 12 106 20 108 18 4 -4 -36 -1151 -40 -1166 -6 -18 -1105
-18 -1105 1 0 51 60 981 63 984 3 2 35 -33 73 -79 137 -168 266 -307 349 -378
85 -74 195 -156 195 -147 0 3 -43 54 -96 114 -118 133 -281 348 -356 469 -66
106 -132 234 -121 234 5 0 63 -31 131 -70z"/>
<path d="M5064 3523 c-4 -25 -4 -89 -1 -141 7 -106 -3 -141 -51 -166 l-27 -15
43 -1 c33 0 49 6 69 26 24 25 25 29 19 101 -4 42 -10 89 -13 105 -5 27 -4 28
35 28 41 0 92 17 92 30 0 25 -45 59 -91 69 -69 15 -67 16 -75 -36z"/>
<path d="M4834 3546 c-51 -22 -62 -76 -15 -76 69 0 121 13 126 31 3 11 8 28
11 39 5 18 1 20 -43 20 -26 -1 -62 -7 -79 -14z"/>
<path d="M4923 3115 l-28 -24 108 -1 c59 0 107 4 107 9 0 27 -34 41 -95 41
-54 0 -68 -4 -92 -25z"/>
<path d="M3825 2250 c28 -102 113 -236 207 -327 117 -114 231 -173 388 -200
72 -13 97 -13 160 -2 l74 13 -79 17 c-266 58 -465 181 -658 408 -105 125 -100
120 -92 91z"/>
</g>
</svg>
